<svg xmlns="http://www.w3.org/2000/svg" viewBox="0 0 128 128" role="img" aria-label="NASA ADS logo">
  <defs>
    <linearGradient id="adsBlue" x1="0" x2="1" y1="0" y2="1">
      <stop offset="0" stop-color="#2d63d8" />
      <stop offset="1" stop-color="#4287e0" />
    </linearGradient>
    <linearGradient id="adsBlueHighlight" x1="0.18" x2="0.82" y1="0.14" y2="0.86">
      <stop offset="0" stop-color="#4d94ff" stop-opacity="0.55" />
      <stop offset="1" stop-color="#ffffff" stop-opacity="0.08" />
    </linearGradient>
  </defs>
  <circle cx="76" cy="64" r="56" fill="#383636" />
  <circle cx="76" cy="64" r="47" fill="#a7a7a7" />
  <path
    d="M58 12a56 56 0 0 1 50 94"
    fill="none"
    stroke="#c6c6c6"
    stroke-width="3.8"
    stroke-linecap="square"
  />
  <path
    d="M36 79A56 56 0 0 1 31 43"
    fill="none"
    stroke="#c6c6c6"
    stroke-width="3.8"
    stroke-linecap="square"
  />
  <circle cx="76" cy="64" r="26" fill="url(#adsBlue)" />
  <path d="M50 83c12-5 36-17 53-36a26 26 0 0 1-53 36Z" fill="url(#adsBlueHighlight)" />
  <path
    d="M70 88c-8 0-14-6-14-14 0-11 8-15 18-16l8-1c4-.5 7-2 7-6 0-4-3-6-8-6-6 0-10 3-10 9h-9c0-11 8-18 19-18 11 0 18 6 18 16v23c0 3 1 5 3 6v1h-10c-2-1-3-3-3-5v-1c-3 4-8 6-13 6Zm2-8c8 0 14-5 14-12v-5c-2 1-5 2-8 2l-5 1c-6 1-9 4-9 9 0 3 3 5 8 5Z"
    fill="#f7f7f7"
  />
  <path d="M3 101 40 77l11 17-36 24a10 10 0 0 1-12-1 10 10 0 0 1 0-16Z" fill="#383636" />
  <path d="M10 109 43 87l7 10-33 22a7 7 0 0 1-10-2 7 7 0 0 1 3-8Z" fill="#a6a6a6" />
  <circle cx="45" cy="32" r="22" fill="#383636" />
  <circle cx="45" cy="32" r="15" fill="#f7f7f7" />
</svg>
