<svg xmlns="http://www.w3.org/2000/svg" viewBox="1 1 62 62">
  <defs>
    <clipPath id="planet">
      <circle cx="32" cy="32" r="28"/>
    </clipPath>
    <linearGradient id="glow" x1="0" y1="0" x2="1" y2="1">
      <stop offset="0" stop-color="#f6e6cb"/>
      <stop offset="1" stop-color="#c08d63"/>
    </linearGradient>
  </defs>
  <circle cx="32" cy="32" r="30" fill="#f7f1ea"/>
  <circle cx="32" cy="32" r="28" fill="url(#glow)"/>
  <g clip-path="url(#planet)">
    <rect x="0" y="8" width="64" height="8" fill="#eadbc3"/>
    <rect x="0" y="14" width="64" height="7" fill="#c99265"/>
    <rect x="0" y="21" width="64" height="6" fill="#f1e4cf"/>
    <rect x="0" y="27" width="64" height="7" fill="#b97c54"/>
    <rect x="0" y="34" width="64" height="7" fill="#efdcc2"/>
    <rect x="0" y="41" width="64" height="7" fill="#c48d67"/>
    <rect x="0" y="48" width="64" height="8" fill="#e6d2b5"/>
    <ellipse cx="21" cy="35" rx="7" ry="4.2" fill="#c76855"/>
    <ellipse cx="19.5" cy="35" rx="4.5" ry="2.7" fill="#e09a86"/>
    <path d="M5 18c9 3 19 2 28-1s18-3 26 0" fill="none" stroke="#a36d49" stroke-width="1.6" opacity="0.7"/>
    <path d="M4 31c10 2 20 2 30-1s19-3 26-1" fill="none" stroke="#8e5f43" stroke-width="1.5" opacity="0.65"/>
    <path d="M6 45c9 2 19 1 28-1s17-2 24 0" fill="none" stroke="#a26f4a" stroke-width="1.5" opacity="0.65"/>
    <ellipse cx="24" cy="18" rx="23" ry="10" fill="#ffffff" opacity="0.12" transform="rotate(-18 24 18)"/>
  </g>
  <circle cx="32" cy="32" r="28" fill="none" stroke="#d8c1a2" stroke-width="1.2"/>
</svg>
